# xmcd
#
# Track frame offsets:
#	150
#	12248
#	25566
#	35976
#	51924
#	66988
#	76161
#	98379
#	112348
#	127731
#	142153
#	156808
#	171376
#	188716
#	199389
#
# Disc length: 2883 seconds
#
# Revision: 1
# Processed by: cddbd v1.5.1PL0 Copyright (c) Steve Scherf et al.
# Submitted via: CDex 1.50Beta5
#
DISCID=cf0b410f
DTITLE=さまざまなアーティスト - GREAT 60'
DYEAR=1900
DGENRE=Soul
TTITLE0=夢のカリフォルニア
TTITLE1=マイ・ガール
TTITLE2=この素晴らしき世界
TTITLE3=恋の面影
TTITLE4=許して許して
TTITLE5=よくあることさ
TTITLE6=ビリー・ジョーの歌
TTITLE7=イエスター・ミー・イエスター・ユー・イエスタデイ
TTITLE8=ストップ!インザ・ネーム・オブ・ラブ
TTITLE9=ハーバーライト
TTITLE10=フール・オンザ・ヒル
TTITLE11=カンタナメラ
TTITLE12=星のささやき
TTITLE13=愛するハーモニー
TTITLE14=ふられた気持ち
EXTD=
EXTT0=
EXTT1=
EXTT2=
EXTT3=
EXTT4=
EXTT5=
EXTT6=
EXTT7=
EXTT8=
EXTT9=
EXTT10=
EXTT11=
EXTT12=
EXTT13=
EXTT14=
PLAYORDER=
